<?xml version="1.0" encoding="UTF-8"?>
<svg id="Layer_1" xmlns="http://www.w3.org/2000/svg" xmlns:xlink="http://www.w3.org/1999/xlink" version="1.1" viewBox="0 0 3650.2 698.9">
  <!-- Generator: Adobe Illustrator 29.0.1, SVG Export Plug-In . SVG Version: 2.1.0 Build 192)  -->
  <defs>
    <style>
      .st0 {
        fill: url(#linear-gradient2);
      }

      .st1 {
        fill: url(#linear-gradient1);
      }

      .st2 {
        fill: url(#linear-gradient3);
      }

      .st3 {
        fill: url(#linear-gradient5);
      }

      .st4 {
        fill: url(#linear-gradient4);
      }

      .st5 {
        fill: url(#linear-gradient);
      }

      .st6 {
        fill: #fff;
      }
    </style>
    <linearGradient id="linear-gradient" x1="-1677.1" y1="80.9" x2="-958.5" y2="-637.6" gradientTransform="translate(0 -50)" gradientUnits="userSpaceOnUse">
      <stop offset="0" stop-color="#00b2ff"/>
      <stop offset="1" stop-color="#006aff"/>
    </linearGradient>
    <linearGradient id="linear-gradient1" x1="-1829.8" y1="1272" x2="-805.8" y2="248" gradientTransform="translate(0 -50)" gradientUnits="userSpaceOnUse">
      <stop offset="0" stop-color="#00b2ff"/>
      <stop offset="1" stop-color="#006aff"/>
    </linearGradient>
    <linearGradient id="linear-gradient2" x1="-1764.3" y1="2250.5" x2="-871.4" y2="1357.5" gradientTransform="translate(0 -50)" gradientUnits="userSpaceOnUse">
      <stop offset="0" stop-color="#00b2ff"/>
      <stop offset="1" stop-color="#006aff"/>
    </linearGradient>
    <linearGradient id="linear-gradient3" x1="-68.5" y1="609.4" x2="576.3" y2="-35.4" gradientUnits="userSpaceOnUse">
      <stop offset="0" stop-color="#006aff"/>
      <stop offset="1" stop-color="#00b2ff"/>
    </linearGradient>
    <linearGradient id="linear-gradient4" x1="106.9" y1="793.8" x2="478.6" y2="422" xlink:href="#linear-gradient3"/>
    <linearGradient id="linear-gradient5" x1="128.6" y1="792.7" x2="398.6" y2="522.7" xlink:href="#linear-gradient3"/>
  </defs>
  <g>
    <rect class="st5" x="-1729.8" y="-740.3" width="824" height="824"/>
    <g>
      <path class="st6" d="M-1054.9-620.6s-90.4-20.9-173.6,20.8c-66.5,33.3-92.5,100.7-92.5,100.7,4.6-24.4,19.5-52.2,19.5-52.2-50,19.4-76.7,79.1-76.7,79.1l4.5-25.4c-70,55.8-80.9,151.9-80.9,151.9-2.8-25.2,5.5-64.4,5.5-64.4-65.4,69.3-45,154.2-45,154.2l-43.4,70.2h0c-8.4,13.4-15.2,26.4-20.6,38.8,4.4,1.8,7.9,5.8,9,10.8,1.7,8.1-3.5,16.1-11.7,17.7-2.8.6-5.5.3-8-.6-11.7,36-11.9,70.1-11.9,70.1,0,0,11.9-21.7,28.9-37.3,21-19.4,41.7-30,41.7-30,3.9-38.2,19.6-72.8,19.6-72.8-6.5-5.2-14-8.1-20.5-9.7,151.2-308.2,385.6-386.3,385.6-386.3-256,126.5-345.5,359.1-345.5,359.1,90.5-3.7,121.4-59,121.4-59-23.2,2.8-35.1-1-35.1-1,51.4-7.1,87.3-41.3,87.3-41.3-33.5,9.8-63.1,8.6-63.1,8.6,86.1-20.8,125-65.3,125-65.3-24.3,5.7-46.3,6.8-46.3,6.8,62.3-30.3,95.6-79.7,95.6-79.7-31.8,8.3-58.9,3.8-58.9,3.8,91-22.7,116-66.6,116-66.6-26.9,9.9-47.1,8.7-47.1,8.7,83.6-22.4,121.1-109.9,121.1-109.9v.2h.1Z"/>
      <path class="st6" d="M-1315.2-89.8c37.9,8.3,76.9,11.3,106.5,4.9,59.1-12.9,98.5-51.9,116.3-100.9-44.3,46.1-87,65-137.4,67.5-43.7,2.2-93.2-9-154.3-12.2-135.2-7.3-194.7,91.3-194.7,91.3,72.8-56.4,126.6-80.7,263.7-50.6h-.1Z"/>
      <path class="st6" d="M-1341.3-73.8c-120.5-40-177.5-9.5-218.5,34.2,80.8-50.4,129.7-22.3,235.1,2.6,126.8,29.9,168.9-58.2,168.9-58.2-37.8,31.6-88.7,53.6-185.6,21.4h.1Z"/>
    </g>
  </g>
  <rect class="st1" x="-1829.8" y="198" width="1024" height="1024"/>
  <g>
    <path class="st6" d="M-991.1,346.8s-112.3-25.9-215.7,25.8c-82.7,41.4-115,125.2-115,125.2,5.7-30.3,24.3-64.9,24.3-64.9-62.1,24.1-95.3,98.3-95.3,98.3l5.6-31.6c-87,69.3-100.5,188.8-100.5,188.8-3.5-31.3,6.8-80.1,6.8-80.1-81.3,86.1-55.9,191.7-55.9,191.7l-53.9,87.3h0c-10.4,16.6-18.9,32.9-25.6,48.2,5.5,2.3,9.9,7.2,11.2,13.5,2.1,10.1-4.4,20-14.5,22.1-3.5.7-6.9.4-10-.7-14.5,44.7-14.8,87.1-14.8,87.1,0,0,14.8-27,35.9-46.4,26.1-24.1,51.8-37.3,51.8-37.3,4.9-47.5,24.3-90.5,24.3-90.5-8-6.5-17.3-10.1-25.5-12,187.9-383,479.2-480.1,479.2-480.1-318.1,157.2-429.3,446.2-429.3,446.2,112.4-4.6,150.9-73.3,150.9-73.3-28.8,3.5-43.6-1.2-43.6-1.2,63.9-8.8,108.5-51.4,108.5-51.4-41.6,12.2-78.4,10.7-78.4,10.7,107-25.9,155.4-81.2,155.4-81.2-30.2,7.1-57.5,8.4-57.5,8.4,77.4-37.6,118.9-99,118.9-99-39.6,10.3-73.2,4.7-73.2,4.7,113.1-28.2,144.2-82.7,144.2-82.7-33.4,12.4-58.6,10.9-58.6,10.9,103.9-27.9,150.5-136.6,150.5-136.6h-.2Z"/>
    <path class="st6" d="M-1314.5,1006.4c47.2,10.4,95.5,14.1,132.3,6.1,73.5-16,122.4-64.4,144.5-125.4-55,57.3-108.1,80.8-170.7,83.9-54.3,2.7-115.9-11.1-191.8-15.2-168-9-241.9,113.5-241.9,113.5,90.4-70.1,157.3-100.3,327.6-62.9h0Z"/>
    <path class="st6" d="M-1346.9,1026.3c-149.8-49.7-220.6-11.9-271.6,42.5,100.4-62.7,161.2-27.7,292.2,3.2,157.6,37.2,209.9-72.4,209.9-72.4-46.9,39.3-110.3,66.6-230.6,26.6h0Z"/>
  </g>
  <g>
    <rect class="st0" x="-1829.8" y="1242" width="1024" height="1024" rx="109.1" ry="109.1"/>
    <g>
      <path class="st6" d="M-991.1,1390.8s-112.3-26-215.7,25.8c-82.6,41.4-115,125.1-115,125.1,5.7-30.3,24.2-64.9,24.2-64.9-62.1,24.1-95.3,98.3-95.3,98.3l5.6-31.6c-87,69.3-100.5,188.8-100.5,188.8-3.5-31.3,6.8-80,6.8-80-81.3,86.1-55.9,191.6-55.9,191.6l-53.9,87.2h0c-10.4,16.7-18.9,32.8-25.6,48.2,5.5,2.2,9.8,7.2,11.2,13.4,2.1,10.1-4.3,20-14.5,22-3.5.7-6.8.4-9.9-.7-14.5,44.7-14.8,87.1-14.8,87.1,0,0,14.8-27,35.9-46.4,26.1-24.1,51.8-37.3,51.8-37.3,4.8-47.5,24.4-90.5,24.4-90.5-8.1-6.5-17.4-10.1-25.5-12.1,187.9-383,479.2-480.1,479.2-480.1-318.1,157.2-429.4,446.3-429.4,446.3,112.5-4.6,150.9-73.3,150.9-73.3-28.8,3.5-43.6-1.2-43.6-1.2,63.9-8.8,108.5-51.3,108.5-51.3-41.6,12.2-78.4,10.7-78.4,10.7,107-25.8,155.3-81.1,155.3-81.1-30.2,7.1-57.5,8.5-57.5,8.5,77.4-37.7,118.8-99,118.8-99-39.5,10.3-73.2,4.7-73.2,4.7,113.1-28.2,144.2-82.8,144.2-82.8-33.4,12.3-58.5,10.8-58.5,10.8,103.9-27.8,150.5-136.6,150.5-136.6v.4Z"/>
      <path class="st6" d="M-1314.6,2050.4c47.1,10.3,95.6,14,132.3,6.1,73.4-16,122.4-64.5,144.5-125.4-55.1,57.3-108.1,80.8-170.7,83.9-54.3,2.7-115.8-11.2-191.8-15.2-168-9.1-242,113.5-242,113.5,90.5-70.1,157.3-100.3,327.7-62.9h0,0Z"/>
      <path class="st6" d="M-1347,2070.3c-149.7-49.7-220.6-11.8-271.5,42.5,100.4-62.6,161.2-27.7,292.2,3.2,157.6,37.2,209.9-72.3,209.9-72.3-47,39.3-110.2,66.6-230.6,26.6h.1-.1Z"/>
    </g>
  </g>
  <g>
    <g>
      <path class="st2" d="M617.5,6.1s-106.1-24.5-203.9,24.4c-78.2,39.1-108.7,118.3-108.7,118.3,5.4-28.6,23-61.3,23-61.3-58.7,22.8-90.1,92.9-90.1,92.9l5.3-29.9c-82.2,65.5-95,178.5-95,178.5-3.3-29.6,6.4-75.7,6.4-75.7-76.8,81.4-52.8,181.2-52.8,181.2l-50.9,82.5h0c-9.8,15.7-17.9,31.1-24.2,45.6,5.2,2.2,9.4,6.8,10.6,12.8,2,9.5-4.2,18.9-13.7,20.9-3.3.7-6.5.4-9.5-.7C.3,637.8,0,677.9,0,677.9c0,0,14-25.5,33.9-43.9,24.7-22.8,49-35.3,49-35.3,4.6-44.9,23-85.5,23-85.5-7.6-6.1-16.4-9.5-24.1-11.3C259.4,139.9,534.7,48.1,534.7,48.1,234,196.7,128.9,469.9,128.9,469.9c106.2-4.3,142.6-69.3,142.6-69.3-27.2,3.3-41.2-1.1-41.2-1.1,60.4-8.3,102.6-48.6,102.6-48.6-39.3,11.5-74.1,10.1-74.1,10.1,101.1-24.5,146.9-76.8,146.9-76.8-28.5,6.7-54.4,7.9-54.4,7.9,73.2-35.5,112.4-93.6,112.4-93.6-37.4,9.7-69.2,4.4-69.2,4.4,106.9-26.7,136.3-78.2,136.3-78.2-31.6,11.7-55.4,10.3-55.4,10.3C573.7,108.8,617.7,6,617.7,6h-.2Z"/>
      <path class="st4" d="M311.8,629.6c44.6,9.8,90.3,13.3,125.1,5.8,69.5-15.1,115.7-60.9,136.6-118.5-52,54.2-102.2,76.4-161.4,79.3-51.3,2.6-109.6-10.5-181.3-14.4C72,573.3,2.2,689.1,2.2,689.1c85.4-66.3,148.7-94.8,309.7-59.5h0Z"/>
      <path class="st3" d="M281.2,648.4c-141.6-47-208.5-11.2-256.7,40.2,94.9-59.3,152.4-26.2,276.2,3,149,35.2,198.4-68.4,198.4-68.4-44.3,37.1-104.3,63-218,25.1h0Z"/>
    </g>
    <g>
      <path class="st6" d="M720.8,453.1v-218.2c0-20.5,5.3-39.6,15.8-57.4,10.5-17.8,24.9-31.9,43-42.3,18.1-10.4,37.7-15.6,58.8-15.6h40.1c29.9,0,54.2,9.7,73,29,18.7,19.4,28.1,44.5,28.1,75.3s-10.9,66.4-32.6,83.1c-21.7,16.7-46.4,25-74.1,25h-105.8v120.9h-46.3ZM767.1,285.9h105.8c20.1,0,35.3-5.7,45.6-17.2,10.2-11.5,15.3-26.4,15.3-44.6s-5-30.1-15.1-41.3c-10.1-11.2-23.8-16.8-41.1-16.8h-39.2c-11.3,0-22.5,2.8-33.5,8.3-11,5.5-20.1,13.5-27.2,23.8-7.1,10.4-10.6,22.7-10.6,36.8v51Z"/>
      <path class="st6" d="M1048.1,440.6c-17.6-10.2-31.3-24.3-41.1-42.3-9.8-17.9-14.6-38.1-14.6-60.4s5.4-43.1,16.1-61.4c10.7-18.3,25.3-32.6,43.7-43,18.4-10.4,38.8-15.6,61.2-15.6s42.3,5.2,60.7,15.6c18.4,10.4,33,24.6,43.7,42.5,10.7,17.9,16.1,37.8,16.1,59.5v117.1h-45.8v-54.8h-4.3c-.3,16.4-8,30.2-23.1,41.3-15.1,11.2-32.3,16.8-51.5,16.8s-43.3-5.1-60.9-15.3ZM1164.8,390.5c14.2-14.6,21.2-32.2,21.2-52.7s-7-38.7-21-52.9c-14-14.2-31.3-21.3-51.7-21.3s-38.7,7.1-52.9,21.3c-14.2,14.2-21.3,31.8-21.3,52.9s7.2,38.4,21.5,52.9c14.3,14.5,31.9,21.7,52.7,21.7s37.3-7.3,51.5-22Z"/>
      <path class="st6" d="M1326.3,396v152.5h-45.8v-213.9c0-22,5.3-41.9,15.8-59.7,10.5-17.8,24.9-31.7,43-41.8,18.1-10.1,37.9-15.1,59.3-15.1s42,5.2,60,15.6c17.9,10.4,32,24.5,42.3,42.3,10.2,17.8,15.3,37.7,15.3,59.7,0,31.8-10,58.8-30,81-20,22.2-47,33.8-81,34.7-22.4.3-39.8-5-52.4-16.1-12.6-11-19.8-24.1-21.7-39.2h-4.7ZM1449.7,284c-13.7-13.5-30.8-20.3-51.2-20.3s-36.7,6.8-50.5,20.5c-13.9,13.7-20.8,30.8-20.8,51.2s6.9,35.6,20.8,49.1c13.8,13.5,30.7,20.3,50.5,20.3s37.1-6.8,51-20.3c13.8-13.5,20.8-29.9,20.8-49.1s-6.8-37.9-20.5-51.5Z"/>
      <path class="st6" d="M1725.3,383c13.2-12.8,19.8-28.4,19.8-47v-118.1h46.3v118.1c0,20.5-5,39.3-15.1,56.4-10.1,17.2-23.8,30.7-41.3,40.6-17.5,9.9-36.9,14.9-58.3,14.9s-40.4-5-57.9-15.1c-17.5-10.1-31.3-23.6-41.6-40.6-10.2-17-15.5-35.7-15.8-56.2v-118.1h46.3v118.1c0,18.3,6.7,33.8,20.1,46.8,13.4,12.9,29.7,19.4,48.9,19.4s35.4-6.4,48.6-19.1ZM1722.2,516.4c13.1-11.3,20.7-25.5,22.9-42.5h46.8c-1.3,19.5-7.2,37.3-17.7,53.4-10.6,16.1-24.4,28.7-41.6,38-17.2,9.3-35.8,13.9-56,13.9s-38.3-4.6-55.3-13.7c-17-9.1-30.9-21.7-41.6-37.8-10.7-16.1-16.8-34-18.4-53.8h45.8c1.9,16.7,9.4,30.8,22.7,42.3,13.2,11.5,28.8,17.2,46.8,17.2s32.5-5.7,45.6-17Z"/>
      <path class="st6" d="M1902.4,284.5c-12.9,13.5-19.4,30.1-19.4,49.6v118.5h-45.8v-118.5c0-21.4,5-41,15.1-58.8,10.1-17.8,23.6-31.8,40.6-42,17-10.2,35.7-15.3,56.2-15.3h24.1v46.3h-24.1c-18.3,0-33.8,6.8-46.8,20.3Z"/>
      <path class="st6" d="M2074.3,439.6c-17.3-9.9-31-23.5-41.1-40.9-10.1-17.3-15.1-36.7-15.1-58.1v-122.8h45.8v122.8c0,19.5,6.5,35.7,19.6,48.4,13.1,12.8,28.9,19.1,47.5,19.1,18.9-.3,34.6-6.8,47.2-19.4,12.6-12.6,18.9-28.6,18.9-48.2v-122.8h45.8v123.3c0,21.4-4.9,40.7-14.6,57.9-9.8,17.2-23.1,30.7-40.1,40.6-17,9.9-36.1,14.9-57.1,14.9s-39.4-5-56.7-14.9Z"/>
      <path class="st6" d="M2450.2,438.2c-17.9,10.6-41.4,15.8-70.4,15.8s-35.6-1.9-51-5.7c-15.4-3.8-27.7-8-36.8-12.8v-43c27.7,13.2,58.6,19.8,92.6,19.8s20.9-1.7,30.7-5c9.8-3.3,14.6-9.4,14.6-18.2.3-7.9-3.7-13.9-12-18.2-8.3-4.2-20.7-8.6-37.1-13-4.4-1.3-7.7-2.2-9.9-2.8-.3,0-.9-.2-1.9-.5-17-4.7-30.9-9.4-41.8-14.2-10.9-4.7-20.2-11.8-27.9-21.3-7.7-9.4-11.4-21.7-11.1-36.8.3-20.8,9.2-37.2,26.7-49.3,17.5-12.1,40.7-18.2,69.7-18.2s32.7,1.5,47.2,4.5c14.5,3,25.5,6.7,33.1,11.1l-3.3,41.1c-19.5-9.4-44.9-15.3-76-17.5-17.3-1.3-30.1.3-38.3,4.7-8.2,4.4-12.8,10.6-13.7,18.4-1.9,14.8,14.6,26.6,49.6,35.4,21.4,5,38.6,10.2,51.5,15.3,12.9,5.2,23.2,12.4,30.9,21.5,7.7,9.1,11.6,21.3,11.6,36.4,0,24.2-9,41.6-26.9,52.2Z"/>
      <path class="st6" d="M2837.4,281.7c-11.3-12.6-25.8-18.9-43.4-18.9s-33.5,6.2-43.9,18.7c-10.4,12.4-15.6,28.7-15.6,48.9v122.3h-46.3v-122.3c0-18.9-5.9-34.9-17.7-47.9-11.8-13.1-25.9-19.4-42.3-19.1-17.3,0-31.7,6.4-43.2,19.1-11.5,12.8-17.2,28.7-17.2,47.9v122.3h-45.8v-122.8c.3-21.4,5.1-40.7,14.4-57.9,9.3-17.2,22-30.7,38-40.6,16.1-9.9,34-14.9,53.8-14.9s39.7,5.4,54.8,16.3c15.1,10.9,23.4,24.6,25,41.3h3.3c2.2-16.1,11.3-29.8,27.4-41.1,16.1-11.3,34.5-17,55.3-17,31.2.6,56.7,11.6,76.7,32.8,20,21.3,30,48.6,30,81.9v121.4h-46.3v-121.4c0-20.1-5.7-36.5-17-49.1Z"/>
      <path class="st6" d="M3001.3,440.6c-17.6-10.2-31.3-24.3-41.1-42.3-9.8-17.9-14.6-38.1-14.6-60.4s5.4-43.1,16.1-61.4c10.7-18.3,25.3-32.6,43.7-43,18.4-10.4,38.8-15.6,61.2-15.6s42.3,5.2,60.7,15.6c18.4,10.4,33,24.6,43.7,42.5,10.7,17.9,16.1,37.8,16.1,59.5v117.1h-45.8v-54.8h-4.3c-.3,16.4-8,30.2-23.1,41.3-15.1,11.2-32.3,16.8-51.5,16.8s-43.3-5.1-60.9-15.3ZM3117.9,390.5c14.2-14.6,21.2-32.2,21.2-52.7s-7-38.7-21-52.9c-14-14.2-31.3-21.3-51.7-21.3s-38.7,7.1-52.9,21.3c-14.2,14.2-21.3,31.8-21.3,52.9s7.2,38.4,21.5,52.9c14.3,14.5,31.9,21.7,52.7,21.7s37.3-7.3,51.5-22Z"/>
      <path class="st6" d="M3298.8,284.5c-12.9,13.5-19.4,30.1-19.4,49.6v118.5h-45.8v-118.5c0-21.4,5-41,15.1-58.8,10.1-17.8,23.6-31.8,40.6-42,17-10.2,35.7-15.3,56.2-15.3h24.1v46.3h-24.1c-18.3,0-33.8,6.8-46.8,20.3Z"/>
      <path class="st6" d="M3414.5,124h45.8v254.1l113.3-160.1h53.4l-76.5,105.8,99.6,129.4h-56.2l-69.9-86.9-64.2,86.9h-45.3V124Z"/>
    </g>
  </g>
</svg>