<?xml version="1.0" encoding="UTF-8"?>
<svg id="Layer_1" data-name="Layer 1" xmlns="http://www.w3.org/2000/svg" xmlns:xlink="http://www.w3.org/1999/xlink" viewBox="0 0 3650.15 698.9">
  <defs>
    <style>
      .cls-1 {
        fill: url(#linear-gradient-3);
      }

      .cls-2 {
        fill: url(#linear-gradient-2);
      }

      .cls-3 {
        fill: url(#linear-gradient);
      }

      .cls-4 {
        fill: #fff;
      }
    </style>
    <linearGradient id="linear-gradient" x1="-68.49" y1="609.42" x2="576.3" y2="-35.37" gradientUnits="userSpaceOnUse">
      <stop offset="0" stop-color="#006aff"/>
      <stop offset="1" stop-color="#00b2ff"/>
    </linearGradient>
    <linearGradient id="linear-gradient-2" x1="106.87" y1="793.76" x2="478.63" y2="422" xlink:href="#linear-gradient"/>
    <linearGradient id="linear-gradient-3" x1="128.58" y1="792.69" x2="398.59" y2="522.69" xlink:href="#linear-gradient"/>
  </defs>
  <g>
    <path class="cls-3" d="M617.52,6.13s-106.15-24.48-203.89,24.39c-78.17,39.13-108.7,118.34-108.7,118.34,5.39-28.64,22.97-61.35,22.97-61.35-58.7,22.78-90.08,92.92-90.08,92.92l5.29-29.87c-82.24,65.5-95,178.46-95,178.46-3.31-29.59,6.43-75.71,6.43-75.71-76.85,81.38-52.84,181.2-52.84,181.2l-50.95,82.52h0c-9.83,15.69-17.86,31.1-24.2,45.56,5.2,2.17,9.36,6.81,10.59,12.76,1.98,9.55-4.16,18.9-13.71,20.89-3.31.66-6.52.38-9.45-.66C.28,637.83,0,677.91,0,677.91c0,0,13.99-25.52,33.93-43.86,24.67-22.78,48.96-35.26,48.96-35.26,4.63-44.9,22.97-85.54,22.97-85.54-7.56-6.14-16.35-9.55-24.1-11.34C259.37,139.88,534.72,48.1,534.72,48.1,234.04,196.69,128.93,469.86,128.93,469.86c106.24-4.35,142.64-69.29,142.64-69.29-27.22,3.31-41.21-1.13-41.21-1.13,60.4-8.32,102.56-48.58,102.56-48.58-39.32,11.53-74.11,10.11-74.11,10.11,101.14-24.48,146.89-76.75,146.89-76.75-28.55,6.71-54.35,7.94-54.35,7.94,73.16-35.54,112.39-93.58,112.39-93.58-37.43,9.74-69.19,4.44-69.19,4.44,106.91-26.66,136.3-78.17,136.3-78.17-31.57,11.72-55.39,10.3-55.39,10.3C573.66,108.78,617.71,6.04,617.71,6.04h-.19v.09Z"/>
    <path class="cls-2" d="M311.83,629.61c44.61,9.83,90.27,13.33,125.05,5.77,69.47-15.12,115.7-60.87,136.59-118.53-51.99,54.16-102.18,76.37-161.35,79.3-51.33,2.55-109.55-10.49-181.3-14.37C72.03,573.27,2.17,689.06,2.17,689.06c85.45-66.26,148.69-94.81,309.66-59.46h0Z"/>
    <path class="cls-1" d="M281.21,648.42c-141.6-46.98-208.52-11.25-256.73,40.17,94.9-59.27,152.37-26.18,276.2,3.02,148.97,35.16,198.4-68.43,198.4-68.43-44.33,37.15-104.26,62.95-217.97,25.14h0l.09.09Z"/>
  </g>
  <g>
    <path class="cls-4" d="M720.84,453.11v-218.18c0-20.46,5.27-39.59,15.82-57.38,10.55-17.78,24.87-31.88,42.98-42.27,18.1-10.39,37.7-15.58,58.79-15.58h40.14c29.91,0,54.23,9.68,72.96,29.04,18.73,19.36,28.1,44.47,28.1,75.32,0,38.72-10.86,66.43-32.58,83.12-21.72,16.69-46.44,25.03-74.14,25.03h-105.78v120.89h-46.28ZM767.12,285.93h105.78c20.14,0,35.34-5.74,45.57-17.24,10.23-11.49,15.35-26.36,15.35-44.63,0-16.37-5.04-30.14-15.11-41.32-10.08-11.17-23.77-16.76-41.08-16.76h-39.2c-11.33,0-22.51,2.76-33.53,8.26-11.02,5.51-20.07,13.46-27.15,23.85-7.08,10.39-10.63,22.67-10.63,36.83v51Z"/>
    <path class="cls-4" d="M1048.11,440.59c-17.64-10.23-31.33-24.32-41.09-42.27-9.76-17.95-14.64-38.09-14.64-60.45s5.35-43.13,16.06-61.39c10.7-18.26,25.27-32.58,43.68-42.97,18.42-10.39,38.8-15.58,61.16-15.58s42.27,5.19,60.68,15.58c18.42,10.39,32.98,24.56,43.68,42.5,10.7,17.94,16.06,37.78,16.06,59.5v117.12h-45.81v-54.78h-4.25c-.32,16.37-8.03,30.15-23.14,41.32-15.11,11.18-32.28,16.76-51.48,16.76-22.98,0-43.29-5.11-60.92-15.35ZM1164.75,390.53c14.17-14.64,21.25-32.19,21.25-52.66s-7.01-38.72-21.01-52.89c-14.01-14.17-31.25-21.25-51.71-21.25s-38.72,7.08-52.89,21.25c-14.17,14.17-21.25,31.8-21.25,52.89s7.16,38.41,21.49,52.89c14.32,14.48,31.88,21.72,52.66,21.72s37.31-7.32,51.48-21.96Z"/>
    <path class="cls-4" d="M1326.25,395.97v152.53h-45.81v-213.93c0-22.03,5.27-41.95,15.82-59.74,10.55-17.78,24.87-31.71,42.98-41.79,18.1-10.07,37.85-15.11,59.27-15.11s42.03,5.19,59.97,15.58c17.94,10.39,32.03,24.48,42.27,42.27,10.23,17.79,15.35,37.71,15.35,59.74,0,31.8-10,58.79-29.99,80.99-20,22.2-46.99,33.77-80.99,34.71-22.36.32-39.83-5.03-52.42-16.06-12.59-11.02-19.83-24.08-21.72-39.2h-4.72ZM1449.75,284.04c-13.7-13.53-30.78-20.31-51.24-20.31s-36.68,6.85-50.53,20.54c-13.86,13.7-20.78,30.78-20.78,51.24,0,19.21,6.92,35.58,20.78,49.11,13.85,13.54,30.7,20.31,50.53,20.31s37.14-6.77,51-20.31c13.85-13.53,20.78-29.91,20.78-49.11,0-20.78-6.85-37.93-20.54-51.47Z"/>
    <path class="cls-4" d="M1725.3,382.98c13.22-12.75,19.83-28.41,19.83-46.99v-118.06h46.28v118.06c0,20.47-5.04,39.28-15.11,56.43-10.08,17.16-23.85,30.7-41.32,40.61-17.47,9.92-36.92,14.88-58.32,14.88s-40.38-5.03-57.85-15.11c-17.47-10.07-31.33-23.61-41.56-40.61-10.23-17-15.51-35.73-15.82-56.2v-118.06h46.28v118.06c0,18.26,6.68,33.85,20.07,46.75,13.38,12.91,29.67,19.36,48.88,19.36s35.42-6.38,48.64-19.13ZM1722.23,516.39c13.06-11.33,20.7-25.5,22.9-42.5h46.75c-1.26,19.52-7.16,37.31-17.71,53.36-10.55,16.06-24.4,28.73-41.56,38.02-17.16,9.28-35.82,13.93-55.96,13.93s-38.25-4.57-55.25-13.7c-17-9.13-30.86-21.72-41.56-37.78-10.71-16.06-16.85-34-18.42-53.84h45.81c1.89,16.68,9.45,30.77,22.67,42.27,13.22,11.49,28.81,17.24,46.75,17.24s32.5-5.67,45.57-17Z"/>
    <path class="cls-4" d="M1902.39,284.51c-12.91,13.54-19.36,30.07-19.36,49.59v118.53h-45.81v-118.53c0-21.41,5.03-41,15.11-58.79,10.07-17.78,23.61-31.8,40.61-42.03,17-10.23,35.73-15.35,56.2-15.35h24.09v46.28h-24.09c-18.26,0-33.85,6.77-46.75,20.31Z"/>
    <path class="cls-4" d="M2074.28,439.65c-17.32-9.92-31.01-23.53-41.08-40.85-10.08-17.31-15.11-36.67-15.11-58.09v-122.78h45.81v122.78c0,19.52,6.53,35.65,19.6,48.4,13.06,12.75,28.88,19.13,47.46,19.13,18.89-.31,34.63-6.77,47.23-19.36,12.59-12.59,18.89-28.64,18.89-48.17v-122.78h45.81v123.26c0,21.41-4.88,40.69-14.64,57.85-9.76,17.16-23.14,30.7-40.14,40.61-17,9.92-36.05,14.88-57.14,14.88s-39.36-4.96-56.67-14.88Z"/>
    <path class="cls-4" d="M2450.19,438.23c-17.95,10.55-41.4,15.82-70.37,15.82-18.58,0-35.58-1.89-51-5.67-15.43-3.78-27.71-8.03-36.83-12.75v-42.97c27.7,13.22,58.56,19.83,92.56,19.83,10.7,0,20.93-1.65,30.7-4.96,9.75-3.31,14.64-9.36,14.64-18.18.31-7.87-3.7-13.93-12.04-18.18-8.35-4.25-20.71-8.57-37.07-12.99-4.41-1.25-7.72-2.2-9.92-2.83-.32,0-.94-.15-1.89-.47-17-4.72-30.93-9.44-41.79-14.17-10.86-4.72-20.15-11.81-27.86-21.25-7.72-9.44-11.42-21.72-11.1-36.83.31-20.78,9.21-37.23,26.68-49.35,17.47-12.12,40.69-18.18,69.66-18.18,17,0,32.74,1.5,47.22,4.49,14.48,3,25.5,6.69,33.06,11.1l-3.31,41.09c-19.53-9.44-44.86-15.27-76.03-17.47-17.32-1.25-30.07.32-38.25,4.72-8.19,4.41-12.75,10.55-13.69,18.42-1.89,14.8,14.64,26.61,49.59,35.42,21.4,5.04,38.56,10.15,51.47,15.35,12.91,5.2,23.21,12.36,30.93,21.49,7.71,9.14,11.57,21.25,11.57,36.36,0,24.25-8.97,41.64-26.92,52.18Z"/>
    <path class="cls-4" d="M2837.42,281.68c-11.33-12.59-25.82-18.89-43.45-18.89-18.89,0-33.53,6.22-43.92,18.65-10.39,12.44-15.58,28.73-15.58,48.88v122.31h-46.28v-122.31c0-18.89-5.9-34.86-17.71-47.93-11.81-13.06-25.9-19.44-42.27-19.13-17.32,0-31.72,6.38-43.21,19.13-11.5,12.75-17.24,28.73-17.24,47.93v122.31h-45.81v-122.78c.31-21.41,5.11-40.69,14.4-57.85,9.28-17.16,21.96-30.7,38.02-40.61,16.06-9.92,34-14.88,53.84-14.88,21.4,0,39.67,5.43,54.78,16.29,15.11,10.86,23.45,24.64,25.03,41.32h3.31c2.2-16.06,11.33-29.75,27.39-41.08,16.06-11.33,34.47-17,55.25-17,31.17.63,56.74,11.57,76.74,32.82,19.99,21.25,29.99,48.57,29.99,81.94v121.37h-46.28v-121.37c0-20.14-5.67-36.52-17-49.11Z"/>
    <path class="cls-4" d="M3001.29,440.59c-17.64-10.23-31.33-24.32-41.09-42.27-9.76-17.95-14.64-38.09-14.64-60.45s5.35-43.13,16.06-61.39c10.7-18.26,25.27-32.58,43.68-42.97,18.42-10.39,38.8-15.58,61.16-15.58s42.27,5.19,60.68,15.58c18.42,10.39,32.98,24.56,43.68,42.5,10.7,17.94,16.06,37.78,16.06,59.5v117.12h-45.81v-54.78h-4.25c-.32,16.37-8.03,30.15-23.14,41.32-15.11,11.18-32.28,16.76-51.48,16.76-22.98,0-43.29-5.11-60.92-15.35ZM3117.94,390.53c14.17-14.64,21.25-32.19,21.25-52.66s-7.01-38.72-21.01-52.89c-14.01-14.17-31.25-21.25-51.71-21.25s-38.72,7.08-52.89,21.25c-14.17,14.17-21.25,31.8-21.25,52.89s7.16,38.41,21.49,52.89c14.32,14.48,31.88,21.72,52.66,21.72s37.31-7.32,51.48-21.96Z"/>
    <path class="cls-4" d="M3298.8,284.51c-12.91,13.54-19.36,30.07-19.36,49.59v118.53h-45.81v-118.53c0-21.41,5.03-41,15.11-58.79,10.07-17.78,23.61-31.8,40.61-42.03,17-10.23,35.73-15.35,56.2-15.35h24.09v46.28h-24.09c-18.26,0-33.85,6.77-46.75,20.31Z"/>
    <path class="cls-4" d="M3414.5,123.95h45.81v254.07l113.34-160.09h53.36l-76.5,105.78,99.64,129.4h-56.2l-69.89-86.89-64.23,86.89h-45.34V123.95Z"/>
  </g>
</svg>